<svg width="35" height="34" viewBox="0 0 35 34" fill="none" xmlns="http://www.w3.org/2000/svg">
<path d="M30.625 9.20832C30.625 11.9425 28.3354 14.1667 25.5208 14.1667C22.7063 14.1667 20.4167 11.9425 20.4167 9.20832C20.4167 6.47415 22.7063 4.24999 25.5208 4.24999C28.3354 4.24999 30.625 6.47415 30.625 9.20832ZM27.7083 16.7025C26.9792 16.8867 26.25 17 25.5208 17C23.3948 16.9962 21.3569 16.1741 19.8535 14.7137C18.3501 13.2533 17.5039 11.2736 17.5 9.20832C17.5 7.12582 18.3458 5.24165 19.6875 3.83915C19.4228 3.524 19.0891 3.27018 18.7107 3.09617C18.3323 2.92217 17.9187 2.83237 17.5 2.83332C15.8958 2.83332 14.5833 4.10832 14.5833 5.66665V6.07749C10.2521 7.32415 7.29167 11.1917 7.29167 15.5833V24.0833L4.375 26.9167V28.3333H30.625V26.9167L27.7083 24.0833V16.7025ZM17.5 32.5833C19.1188 32.5833 20.4167 31.3225 20.4167 29.75H14.5833C14.5833 30.5014 14.8906 31.2221 15.4376 31.7535C15.9846 32.2848 16.7265 32.5833 17.5 32.5833Z" fill="#33394B"/>
</svg>
