<svg width="37" height="35" viewBox="0 0 37 35" fill="none" xmlns="http://www.w3.org/2000/svg">
<path d="M21.5833 14.4375V11.9583C22.4312 11.618 23.2987 11.3628 24.1857 11.1927C25.0716 11.0225 26.0028 10.9375 26.9792 10.9375C27.6472 10.9375 28.3024 10.9861 28.9448 11.0833C29.5872 11.1805 30.2167 11.3021 30.8333 11.4479V13.7812C30.2167 13.5625 29.5938 13.3987 28.9648 13.2898C28.3348 13.1799 27.6729 13.125 26.9792 13.125C26.0028 13.125 25.0649 13.2407 24.1656 13.4721C23.2663 13.7025 22.4056 14.0243 21.5833 14.4375ZM21.5833 22.4583V19.9791C22.4312 19.6389 23.2987 19.3837 24.1857 19.2135C25.0716 19.0434 26.0028 18.9583 26.9792 18.9583C27.6472 18.9583 28.3024 19.0069 28.9448 19.1041C29.5872 19.2014 30.2167 19.3229 30.8333 19.4687V21.8021C30.2167 21.5833 29.5938 21.4195 28.9648 21.3106C28.3348 21.2007 27.6729 21.1458 26.9792 21.1458C26.0028 21.1458 25.0649 21.2552 24.1656 21.4739C23.2663 21.6927 22.4056 22.0208 21.5833 22.4583ZM21.5833 18.4479V15.9687C22.4312 15.6285 23.2987 15.3732 24.1857 15.2031C25.0716 15.033 26.0028 14.9479 26.9792 14.9479C27.6472 14.9479 28.3024 14.9965 28.9448 15.0937C29.5872 15.191 30.2167 15.3125 30.8333 15.4583V17.7916C30.2167 17.5729 29.5938 17.4091 28.9648 17.3002C28.3348 17.1903 27.6729 17.1354 26.9792 17.1354C26.0028 17.1354 25.0649 17.2511 24.1656 17.4825C23.2663 17.7129 22.4056 18.0347 21.5833 18.4479ZM20.0417 24.8646C21.1722 24.3541 22.3095 23.9711 23.4534 23.7154C24.5963 23.4607 25.7715 23.3333 26.9792 23.3333C27.9042 23.3333 28.8102 23.4062 29.6971 23.5521C30.5831 23.6979 31.4757 23.9166 32.375 24.2083V9.77081C31.5271 9.43054 30.6473 9.17533 29.7357 9.00519C28.823 8.83505 27.9042 8.74998 26.9792 8.74998C25.7715 8.74998 24.5767 8.89581 23.3948 9.18748C22.2128 9.47915 21.0951 9.91665 20.0417 10.5V24.8646ZM18.5 29.1666C17.2667 28.243 15.9306 27.526 14.4917 27.0156C13.0528 26.5052 11.5625 26.25 10.0208 26.25C8.94166 26.25 7.88203 26.3837 6.84191 26.651C5.80078 26.9184 4.80486 27.2951 3.85416 27.7812C3.31458 28.0486 2.79453 28.0364 2.294 27.7448C1.79244 27.4531 1.54166 27.0278 1.54166 26.4687V8.89581C1.54166 8.62845 1.61258 8.37324 1.75441 8.13019C1.89522 7.88713 2.10694 7.70484 2.38958 7.58331C3.59722 7.02428 4.83723 6.59262 6.10962 6.28831C7.38098 5.98498 8.68472 5.83331 10.0208 5.83331C11.5111 5.83331 12.9695 6.0156 14.3961 6.38019C15.8216 6.74477 17.1896 7.29165 18.5 8.02081C19.8104 7.29165 21.1789 6.74477 22.6055 6.38019C24.031 6.0156 25.4889 5.83331 26.9792 5.83331C28.3153 5.83331 29.6195 5.98498 30.8919 6.28831C32.1633 6.59262 33.4028 7.02428 34.6104 7.58331C34.8931 7.70484 35.1053 7.88713 35.2471 8.13019C35.3879 8.37324 35.4583 8.62845 35.4583 8.89581V26.4687C35.4583 27.0278 35.2081 27.4531 34.7075 27.7448C34.206 28.0364 33.6854 28.0486 33.1458 27.7812C32.1951 27.2951 31.1992 26.9184 30.1581 26.651C29.118 26.3837 28.0583 26.25 26.9792 26.25C25.4375 26.25 23.9472 26.5052 22.5083 27.0156C21.0694 27.526 19.7333 28.243 18.5 29.1666Z" fill="white"/>
</svg>
