<svg width="22" height="20" viewBox="0 0 22 20" fill="none" xmlns="http://www.w3.org/2000/svg">
<path d="M10.4701 1.83999C10.6107 1.69954 10.8013 1.62065 11.0001 1.62065C11.1988 1.62065 11.3895 1.69954 11.5301 1.83999L20.2201 10.53C20.2887 10.6037 20.3715 10.6628 20.4635 10.7038C20.5555 10.7448 20.6549 10.7668 20.7556 10.7686C20.8563 10.7704 20.9563 10.7518 21.0497 10.7141C21.1431 10.6764 21.2279 10.6202 21.2991 10.549C21.3703 10.4778 21.4265 10.393 21.4642 10.2996C21.5019 10.2062 21.5204 10.1062 21.5187 10.0055C21.5169 9.90477 21.4949 9.80545 21.4539 9.71345C21.4129 9.62145 21.3538 9.53865 21.2801 9.46999L12.5911 0.779991C12.3821 0.571056 12.1341 0.40532 11.8611 0.292245C11.5881 0.179171 11.2956 0.120972 11.0001 0.120972C10.7046 0.120972 10.412 0.179171 10.139 0.292245C9.86605 0.40532 9.61801 0.571056 9.40908 0.779991L0.719081 9.46999C0.582527 9.61151 0.50702 9.80099 0.508821 9.99764C0.510621 10.1943 0.589587 10.3824 0.728709 10.5214C0.867831 10.6603 1.05598 10.7391 1.25263 10.7407C1.44928 10.7424 1.63869 10.6667 1.78008 10.53L10.4701 1.83999Z" fill="white"/>
<path d="M11.0001 3.43199L19.1591 11.591C19.1891 11.621 19.2191 11.649 19.2501 11.677V17.875C19.2501 18.91 18.4101 19.75 17.3751 19.75H14.0001C13.8012 19.75 13.6104 19.671 13.4698 19.5303C13.3291 19.3897 13.2501 19.1989 13.2501 19V14.5C13.2501 14.3011 13.1711 14.1103 13.0305 13.9697C12.8898 13.829 12.699 13.75 12.5001 13.75H9.50012C9.30121 13.75 9.11044 13.829 8.96979 13.9697C8.82914 14.1103 8.75012 14.3011 8.75012 14.5V19C8.75012 19.1989 8.6711 19.3897 8.53045 19.5303C8.3898 19.671 8.19903 19.75 8.00012 19.75H4.62512C4.12784 19.75 3.65093 19.5524 3.2993 19.2008C2.94767 18.8492 2.75012 18.3723 2.75012 17.875V11.677C2.78123 11.6492 2.81158 11.6205 2.84112 11.591L11.0001 3.42999V3.43199Z" fill="white"/>
</svg>
