<svg width="37" height="28" viewBox="0 0 37 28" fill="none" xmlns="http://www.w3.org/2000/svg">
<path d="M3.16389 24.0095C2.98795 23.7971 2.78049 23.6306 2.5534 23.5195C2.103 23.2862 1.59781 23.2862 1.14742 23.5195C0.920329 23.6306 0.712864 23.7971 0.536924 24.0095C0.368501 24.2314 0.236477 24.4931 0.148428 24.7795C0.0067581 25.2044 -0.0319484 25.6728 0.0371929 26.1254C0.106334 26.578 0.280225 26.9947 0.536924 27.3228C0.716744 27.5289 0.923227 27.6946 1.14742 27.8128C1.36886 27.9362 1.6083 28 1.85041 28C2.09252 28 2.33196 27.9362 2.5534 27.8128C2.77759 27.6946 2.98407 27.5289 3.16389 27.3228C3.42059 26.9947 3.59448 26.578 3.66362 26.1254C3.73277 25.6728 3.69406 25.2044 3.55239 24.7795C3.46434 24.4931 3.33232 24.2314 3.16389 24.0095ZM9.25032 4.66658H35.15C35.6407 4.66658 36.1112 4.42075 36.4582 3.98317C36.8051 3.5456 37 2.95211 37 2.33329C37 1.71446 36.8051 1.12098 36.4582 0.683405C36.1112 0.245828 35.6407 0 35.15 0H9.25032C8.75968 0 8.28913 0.245828 7.94219 0.683405C7.59525 1.12098 7.40034 1.71446 7.40034 2.33329C7.40034 2.95211 7.59525 3.5456 7.94219 3.98317C8.28913 4.42075 8.75968 4.66658 9.25032 4.66658ZM3.16389 12.3431C2.90374 12.0193 2.57339 11.8 2.21451 11.7128C1.85563 11.6256 1.48432 11.6744 1.14742 11.8531C0.923227 11.9713 0.716744 12.137 0.536924 12.3431C0.368501 12.565 0.236477 12.8267 0.148428 13.1131C0.0505549 13.3924 0 13.6944 0 13.9997C0 14.3051 0.0505549 14.6071 0.148428 14.8864C0.242115 15.1691 0.373514 15.4296 0.536924 15.6564C0.716744 15.8625 0.923227 16.0282 1.14742 16.1464C1.36886 16.2698 1.6083 16.3336 1.85041 16.3336C2.09252 16.3336 2.33196 16.2698 2.5534 16.1464C2.77759 16.0282 2.98407 15.8625 3.16389 15.6564C3.3273 15.4296 3.4587 15.1691 3.55239 14.8864C3.65026 14.6071 3.70082 14.3051 3.70082 13.9997C3.70082 13.6944 3.65026 13.3924 3.55239 13.1131C3.46434 12.8267 3.33232 12.565 3.16389 12.3431ZM35.15 11.6664H9.25032C8.75968 11.6664 8.28913 11.9123 7.94219 12.3498C7.59525 12.7874 7.40034 13.3809 7.40034 13.9997C7.40034 14.6186 7.59525 15.212 7.94219 15.6496C8.28913 16.0872 8.75968 16.333 9.25032 16.333H35.15C35.6407 16.333 36.1112 16.0872 36.4582 15.6496C36.8051 15.212 37 14.6186 37 13.9997C37 13.3809 36.8051 12.7874 36.4582 12.3498C36.1112 11.9123 35.6407 11.6664 35.15 11.6664ZM3.16389 0.676654C2.98795 0.464229 2.78049 0.297714 2.5534 0.186663C2.2165 0.007981 1.84518 -0.0408371 1.48631 0.0463675C1.12743 0.133572 0.797075 0.352892 0.536924 0.676654C0.373514 0.903451 0.242115 1.16388 0.148428 1.44664C0.0505549 1.72593 0 2.02793 0 2.33329C0 2.63865 0.0505549 2.94064 0.148428 3.21994C0.242115 3.5027 0.373514 3.76313 0.536924 3.98992C0.716744 4.19602 0.923227 4.36175 1.14742 4.47991C1.48432 4.6586 1.85563 4.70741 2.21451 4.62021C2.57339 4.533 2.90374 4.31368 3.16389 3.98992C3.3273 3.76313 3.4587 3.5027 3.55239 3.21994C3.65026 2.94064 3.70082 2.63865 3.70082 2.33329C3.70082 2.02793 3.65026 1.72593 3.55239 1.44664C3.4587 1.16388 3.3273 0.903451 3.16389 0.676654ZM35.15 23.3329H9.25032C8.75968 23.3329 8.28913 23.5787 7.94219 24.0163C7.59525 24.4539 7.40034 25.0473 7.40034 25.6662C7.40034 26.285 7.59525 26.8785 7.94219 27.3161C8.28913 27.7536 8.75968 27.9995 9.25032 27.9995H35.15C35.6407 27.9995 36.1112 27.7536 36.4582 27.3161C36.8051 26.8785 37 26.285 37 25.6662C37 25.0473 36.8051 24.4539 36.4582 24.0163C36.1112 23.5787 35.6407 23.3329 35.15 23.3329Z" fill="#33394B"/>
</svg>
