<svg width="23" height="17" viewBox="0 0 23 17" fill="none" xmlns="http://www.w3.org/2000/svg">
<path d="M23 2.125V14.875C23 15.4594 22.7746 15.9598 22.3238 16.3763C21.873 16.7928 21.3317 17.0007 20.7 17H2.3C1.6675 17 1.12585 16.7917 0.675052 16.3752C0.224252 15.9587 -0.000764714 15.4587 1.95246e-06 14.875V2.125C1.95246e-06 1.54063 0.225402 1.04019 0.676202 0.623689C1.127 0.207189 1.66827 -0.000706529 2.3 1.80391e-06H20.7C21.3325 1.80391e-06 21.8741 0.208252 22.3249 0.624751C22.7757 1.04125 23.0008 1.54133 23 2.125ZM2.3 4.25H20.7V2.125H2.3V4.25ZM2.3 8.5V14.875H20.7V8.5H2.3Z" fill="#33394B"/>
</svg>
