<svg width="37" height="37" viewBox="0 0 37 37" fill="none" xmlns="http://www.w3.org/2000/svg">
<path d="M18.5 0C14.9051 0.00682436 11.3897 1.05802 8.38206 3.02554C5.37443 4.99307 3.00437 7.792 1.56057 11.0814C0.116758 14.3708 -0.338486 18.0088 0.250285 21.5521C0.839056 25.0955 2.44643 28.3913 4.87662 31.0381C6.6123 32.9179 8.71886 34.4181 11.0636 35.4442C13.4083 36.4703 15.9403 37 18.5 37C21.0597 37 23.5917 36.4703 25.9364 35.4442C28.2811 34.4181 30.3877 32.9179 32.1234 31.0381C34.5536 28.3913 36.1609 25.0955 36.7497 21.5521C37.3385 18.0088 36.8832 14.3708 35.4394 11.0814C33.9956 7.792 31.6256 4.99307 28.6179 3.02554C25.6103 1.05802 22.0949 0.00682436 18.5 0ZM18.5 33.3345C14.6604 33.3286 10.9727 31.8349 8.21296 29.1676C9.05083 27.1297 10.4762 25.3866 12.3079 24.1599C14.1395 22.9331 16.2949 22.2782 18.5 22.2782C20.7051 22.2782 22.8605 22.9331 24.6921 24.1599C26.5238 25.3866 27.9492 27.1297 28.787 29.1676C26.0273 31.8349 22.3396 33.3286 18.5 33.3345ZM14.793 14.8153C14.793 14.0828 15.0104 13.3667 15.4177 12.7576C15.825 12.1485 16.404 11.6738 17.0814 11.3934C17.7588 11.1131 18.5041 11.0397 19.2232 11.1827C19.9423 11.3256 20.6028 11.6783 21.1213 12.1963C21.6397 12.7143 21.9928 13.3743 22.1358 14.0927C22.2788 14.8112 22.2054 15.5559 21.9249 16.2327C21.6443 16.9095 21.1691 17.488 20.5595 17.8949C19.9499 18.3019 19.2332 18.5191 18.5 18.5191C17.5168 18.5191 16.5739 18.1289 15.8787 17.4343C15.1835 16.7397 14.793 15.7976 14.793 14.8153ZM31.3078 25.9268C29.6518 23.0966 27.1029 20.8952 24.0606 19.6673C25.0043 18.5981 25.6192 17.2796 25.8315 15.8699C26.0439 14.4601 25.8445 13.0192 25.2575 11.7198C24.6704 10.4205 23.7206 9.31802 22.522 8.54467C21.3233 7.77132 19.9268 7.35997 18.5 7.35997C17.0732 7.35997 15.6767 7.77132 14.478 8.54467C13.2794 9.31802 12.3296 10.4205 11.7425 11.7198C11.1555 13.0192 10.9561 14.4601 11.1685 15.8699C11.3808 17.2796 11.9957 18.5981 12.9394 19.6673C9.89707 20.8952 7.34824 23.0966 5.69217 25.9268C4.37236 23.6806 3.67502 21.1238 3.67184 18.5191C3.67184 14.5899 5.23408 10.8215 8.0149 8.04313C10.7957 5.26472 14.5673 3.70383 18.5 3.70383C22.4327 3.70383 26.2043 5.26472 28.9851 8.04313C31.7659 10.8215 33.3282 14.5899 33.3282 18.5191C33.325 21.1238 32.6276 23.6806 31.3078 25.9268Z" fill="#58C744"/>
</svg>
