<svg width="22" height="35" viewBox="0 0 22 35" fill="none" xmlns="http://www.w3.org/2000/svg">
<path d="M10.7333 15.6637C10.5875 15.6475 10.4125 15.6475 10.2521 15.6637C8.57822 15.6004 6.99219 14.8136 5.82988 13.4699C4.66757 12.1262 4.02025 10.3312 4.02501 8.46495C4.02501 4.4837 6.91251 1.24995 10.5 1.24995C11.3494 1.23288 12.1934 1.40239 12.984 1.74879C13.7745 2.0952 14.4961 2.61172 15.1075 3.26887C15.719 3.92602 16.2082 4.71093 16.5474 5.57877C16.8866 6.44662 17.0691 7.38041 17.0844 8.32683C17.0997 9.27325 16.9476 10.2138 16.6367 11.0947C16.3258 11.9756 15.8623 12.7796 15.2725 13.4609C14.6828 14.1422 13.9784 14.6874 13.1995 15.0654C12.4207 15.4433 11.5827 15.6466 10.7333 15.6637ZM3.44167 21.66C-0.0874918 24.2925 -0.0874918 28.5825 3.44167 31.1987C7.45209 34.1887 14.0292 34.1887 18.0396 31.1987C21.5688 28.5662 21.5688 24.2762 18.0396 21.66C14.0438 18.6862 7.46667 18.6862 3.44167 21.66Z" stroke="white" stroke-opacity="0.75" stroke-width="1.5" stroke-linecap="round" stroke-linejoin="round"/>
</svg>
