<svg width="28" height="33" viewBox="0 0 28 33" fill="none" xmlns="http://www.w3.org/2000/svg">
<path d="M26.1037 32.123H1.72449C1.32038 32.123 0.932821 31.9554 0.647072 31.6572C0.361323 31.359 0.20079 30.9545 0.20079 30.5327V1.90743C0.20079 1.48566 0.361323 1.08116 0.647072 0.782924C0.932821 0.484687 1.32038 0.317139 1.72449 0.317139H26.1037C26.5078 0.317139 26.8954 0.484687 27.1811 0.782924C27.4669 1.08116 27.6274 1.48566 27.6274 1.90743V30.5327C27.6274 30.9545 27.4669 31.359 27.1811 31.6572C26.8954 31.9554 26.5078 32.123 26.1037 32.123ZM24.58 28.9424V3.49772H3.24819V28.9424H24.58ZM7.81929 11.4492H20.0089V14.6298H7.81929V11.4492ZM7.81929 17.8104H20.0089V20.9909H7.81929V17.8104Z" fill="white"/>
</svg>
