<svg width="30" height="30" viewBox="0 0 30 30" fill="none" xmlns="http://www.w3.org/2000/svg">
<path d="M27 28L24.5 25.5M13.875 26.75C15.4344 26.75 16.9786 26.4428 18.4194 25.8461C19.8601 25.2493 21.1692 24.3746 22.2719 23.2719C23.3746 22.1692 24.2493 20.8601 24.8461 19.4194C25.4428 17.9786 25.75 16.4344 25.75 14.875C25.75 13.3156 25.4428 11.7714 24.8461 10.3306C24.2493 8.88989 23.3746 7.5808 22.2719 6.47811C21.1692 5.37541 19.8601 4.5007 18.4194 3.90393C16.9786 3.30716 15.4344 3 13.875 3C10.7256 3 7.7051 4.25111 5.47811 6.47811C3.25111 8.7051 2 11.7256 2 14.875C2 18.0244 3.25111 21.0449 5.47811 23.2719C7.7051 25.4989 10.7256 26.75 13.875 26.75Z" stroke="#33394B" stroke-width="2" stroke-linecap="round" stroke-linejoin="round"/>
</svg>
