<svg width="35" height="37" viewBox="0 0 35 37" fill="none" xmlns="http://www.w3.org/2000/svg">
<path d="M17.5 2.3125C18.9504 2.3125 20.3414 2.92159 21.367 4.00579C22.3926 5.08998 22.9688 6.56047 22.9688 8.09375V9.25H12.0312V8.09375C12.0313 6.56047 12.6074 5.08998 13.633 4.00579C14.6586 2.92159 16.0496 2.3125 17.5 2.3125ZM25.1562 9.25V8.09375C25.1562 5.94715 24.3496 3.88848 22.9138 2.3706C21.478 0.852732 19.5306 0 17.5 0C15.4694 0 13.522 0.852732 12.0862 2.3706C10.6504 3.88848 9.84375 5.94715 9.84375 8.09375V9.25H2.1875V32.375C2.1875 33.6016 2.64844 34.778 3.46891 35.6454C4.28938 36.5127 5.40218 37 6.5625 37H28.4375C29.5978 37 30.7106 36.5127 31.5311 35.6454C32.3516 34.778 32.8125 33.6016 32.8125 32.375V9.25H25.1562ZM4.375 11.5625H30.625V32.375C30.625 32.9883 30.3945 33.5765 29.9843 34.0102C29.5741 34.4439 29.0177 34.6875 28.4375 34.6875H6.5625C5.98234 34.6875 5.42594 34.4439 5.0157 34.0102C4.60547 33.5765 4.375 32.9883 4.375 32.375V11.5625Z" fill="#33394B"/>
</svg>
